<mxfile host="app.diagrams.net" modified="2020-12-08T06:44:50.588Z" agent="5.0 (Macintosh; Intel Mac OS X 11_0_0) AppleWebKit/537.36 (KHTML, like Gecko) Chrome/86.0.4240.198 Safari/537.36" etag="nBWEoymVzjZb2Ux7KCRR" version="13.11.0" type="github">
  <diagram id="FGjYrpl-wmRHwMAuxfGO" name="Page-1">
    <mxGraphModel dx="1133" dy="739" grid="1" gridSize="10" guides="1" tooltips="1" connect="1" arrows="1" fold="1" page="1" pageScale="1" pageWidth="827" pageHeight="1169" math="0" shadow="0">
      <root>
        <mxCell id="0" />
        <mxCell id="1" parent="0" />
        <mxCell id="TiqM6QkegBq49liWoowj-3" value="development" style="rounded=1;whiteSpace=wrap;html=1;" parent="1" vertex="1">
          <mxGeometry x="120" y="100" width="120" height="60" as="geometry" />
        </mxCell>
        <mxCell id="TiqM6QkegBq49liWoowj-4" value="deployment" style="rounded=1;whiteSpace=wrap;html=1;" parent="1" vertex="1">
          <mxGeometry x="320" y="100" width="120" height="60" as="geometry" />
        </mxCell>
        <mxCell id="TiqM6QkegBq49liWoowj-5" value="monitoring" style="rounded=1;whiteSpace=wrap;html=1;" parent="1" vertex="1">
          <mxGeometry x="520" y="100" width="120" height="60" as="geometry" />
        </mxCell>
        <mxCell id="TiqM6QkegBq49liWoowj-7" value="react antd mobx" style="rounded=1;whiteSpace=wrap;html=1;" parent="1" vertex="1">
          <mxGeometry x="120" y="180" width="120" height="30" as="geometry" />
        </mxCell>
        <mxCell id="TiqM6QkegBq49liWoowj-10" value="k8s docker" style="rounded=1;whiteSpace=wrap;html=1;" parent="1" vertex="1">
          <mxGeometry x="320" y="180" width="120" height="30" as="geometry" />
        </mxCell>
        <mxCell id="8TWGwKBvYCYoe8VMs0Ds-1" value="sentry" style="rounded=1;whiteSpace=wrap;html=1;" vertex="1" parent="1">
          <mxGeometry x="520" y="180" width="120" height="30" as="geometry" />
        </mxCell>
        <mxCell id="8TWGwKBvYCYoe8VMs0Ds-2" value="graylog" style="rounded=1;whiteSpace=wrap;html=1;" vertex="1" parent="1">
          <mxGeometry x="520" y="220" width="120" height="30" as="geometry" />
        </mxCell>
        <mxCell id="8TWGwKBvYCYoe8VMs0Ds-3" value="k8s log + es&lt;br&gt;(yun.jing-chi)" style="rounded=1;whiteSpace=wrap;html=1;" vertex="1" parent="1">
          <mxGeometry x="520" y="260" width="120" height="30" as="geometry" />
        </mxCell>
      </root>
    </mxGraphModel>
  </diagram>
</mxfile>
